<mxfile host="app.diagrams.net" modified="2022-04-21T13:47:05.988Z" agent="5.0 (Windows NT 10.0; Win64; x64) AppleWebKit/537.36 (KHTML, like Gecko) Chrome/100.0.4896.88 Safari/537.36" etag="HNZ0tus6WGgXCXE17X-t" version="17.4.5" type="github">
  <diagram name="Page-1" id="e7e014a7-5840-1c2e-5031-d8a46d1fe8dd">
    <mxGraphModel dx="1422" dy="825" grid="1" gridSize="10" guides="1" tooltips="1" connect="1" arrows="1" fold="1" page="1" pageScale="1" pageWidth="1169" pageHeight="826" background="#FFFFFF" math="0" shadow="0">
      <root>
        <mxCell id="0" />
        <mxCell id="1" parent="0" />
        <mxCell id="4Qdcl-6P2r4E57aGUwHM-72" value="Agent" style="shape=umlActor;verticalLabelPosition=bottom;verticalAlign=top;html=1;fontColor=#000000;" vertex="1" parent="1">
          <mxGeometry x="180" y="100" width="30" height="60" as="geometry" />
        </mxCell>
        <mxCell id="4Qdcl-6P2r4E57aGUwHM-73" value="&lt;p style=&quot;line-height: 1.2&quot;&gt;&lt;br&gt;&lt;/p&gt;&lt;p style=&quot;line-height: 1.2&quot;&gt;&lt;br&gt;&lt;/p&gt;" style="html=1;fontColor=#000000;align=right;" vertex="1" parent="1">
          <mxGeometry x="280" y="30" width="570" height="690" as="geometry" />
        </mxCell>
        <mxCell id="4Qdcl-6P2r4E57aGUwHM-74" value="Korrieri" style="shape=umlActor;verticalLabelPosition=bottom;verticalAlign=top;html=1;fontColor=#000000;" vertex="1" parent="1">
          <mxGeometry x="920" y="120" width="30" height="60" as="geometry" />
        </mxCell>
        <mxCell id="4Qdcl-6P2r4E57aGUwHM-75" value="Klienti" style="shape=umlActor;verticalLabelPosition=bottom;verticalAlign=top;html=1;fontColor=#000000;" vertex="1" parent="1">
          <mxGeometry x="920" y="580" width="30" height="60" as="geometry" />
        </mxCell>
        <mxCell id="4Qdcl-6P2r4E57aGUwHM-78" value="Krijimi Orderave" style="ellipse;whiteSpace=wrap;html=1;fontColor=#000000;" vertex="1" parent="1">
          <mxGeometry x="350" y="50" width="120" height="80" as="geometry" />
        </mxCell>
        <mxCell id="4Qdcl-6P2r4E57aGUwHM-79" value="Grumbullimi Orderave" style="ellipse;whiteSpace=wrap;html=1;fontColor=#000000;" vertex="1" parent="1">
          <mxGeometry x="620" y="70" width="120" height="80" as="geometry" />
        </mxCell>
        <mxCell id="4Qdcl-6P2r4E57aGUwHM-80" value="Dorezimi Orderave" style="ellipse;whiteSpace=wrap;html=1;fontColor=#000000;" vertex="1" parent="1">
          <mxGeometry x="680" y="390" width="120" height="80" as="geometry" />
        </mxCell>
        <mxCell id="4Qdcl-6P2r4E57aGUwHM-81" value="Marrja Orderave" style="ellipse;whiteSpace=wrap;html=1;fontColor=#000000;" vertex="1" parent="1">
          <mxGeometry x="690" y="540" width="120" height="80" as="geometry" />
        </mxCell>
        <mxCell id="4Qdcl-6P2r4E57aGUwHM-82" value="Krijimi i Cantes" style="ellipse;whiteSpace=wrap;html=1;fontColor=#000000;" vertex="1" parent="1">
          <mxGeometry x="310" y="150" width="120" height="80" as="geometry" />
        </mxCell>
        <mxCell id="4Qdcl-6P2r4E57aGUwHM-83" value="Gjurmimi Orderave" style="ellipse;whiteSpace=wrap;html=1;fontColor=#000000;" vertex="1" parent="1">
          <mxGeometry x="320" y="280" width="120" height="80" as="geometry" />
        </mxCell>
        <mxCell id="4Qdcl-6P2r4E57aGUwHM-84" value="Hapja e cantes" style="ellipse;whiteSpace=wrap;html=1;fontColor=#000000;" vertex="1" parent="1">
          <mxGeometry x="660" y="160" width="120" height="80" as="geometry" />
        </mxCell>
        <mxCell id="4Qdcl-6P2r4E57aGUwHM-85" value="Mbushja e cantes" style="ellipse;whiteSpace=wrap;html=1;fontColor=#000000;" vertex="1" parent="1">
          <mxGeometry x="500" y="170" width="120" height="80" as="geometry" />
        </mxCell>
        <mxCell id="4Qdcl-6P2r4E57aGUwHM-86" value="Mosdorezimi i Orderave" style="ellipse;whiteSpace=wrap;html=1;fontColor=#000000;" vertex="1" parent="1">
          <mxGeometry x="660" y="280" width="120" height="80" as="geometry" />
        </mxCell>
        <mxCell id="4Qdcl-6P2r4E57aGUwHM-87" value="Rikrijimi Orderave" style="ellipse;whiteSpace=wrap;html=1;fontColor=#000000;" vertex="1" parent="1">
          <mxGeometry x="300" y="373" width="120" height="80" as="geometry" />
        </mxCell>
        <mxCell id="4Qdcl-6P2r4E57aGUwHM-91" value="" style="endArrow=none;html=1;rounded=0;labelBackgroundColor=#FF0000;labelBorderColor=none;fontColor=#000000;strokeColor=#FF0000;exitX=0.5;exitY=0.5;exitDx=0;exitDy=0;exitPerimeter=0;entryX=0;entryY=0.5;entryDx=0;entryDy=0;" edge="1" parent="1" source="4Qdcl-6P2r4E57aGUwHM-72" target="4Qdcl-6P2r4E57aGUwHM-82">
          <mxGeometry width="50" height="50" relative="1" as="geometry">
            <mxPoint x="560" y="370" as="sourcePoint" />
            <mxPoint x="610" y="320" as="targetPoint" />
          </mxGeometry>
        </mxCell>
        <mxCell id="4Qdcl-6P2r4E57aGUwHM-92" value="" style="endArrow=none;html=1;rounded=0;labelBackgroundColor=#FF0000;labelBorderColor=none;fontColor=#000000;strokeColor=#FF0000;exitX=0.5;exitY=0.5;exitDx=0;exitDy=0;exitPerimeter=0;entryX=0;entryY=0.5;entryDx=0;entryDy=0;" edge="1" parent="1" source="4Qdcl-6P2r4E57aGUwHM-72" target="4Qdcl-6P2r4E57aGUwHM-78">
          <mxGeometry width="50" height="50" relative="1" as="geometry">
            <mxPoint x="560" y="370" as="sourcePoint" />
            <mxPoint x="610" y="320" as="targetPoint" />
          </mxGeometry>
        </mxCell>
        <mxCell id="4Qdcl-6P2r4E57aGUwHM-93" value="" style="endArrow=none;html=1;rounded=0;labelBackgroundColor=#FF0000;labelBorderColor=none;fontColor=#000000;strokeColor=#FF0000;exitX=0.5;exitY=0.5;exitDx=0;exitDy=0;exitPerimeter=0;entryX=0;entryY=0.5;entryDx=0;entryDy=0;" edge="1" parent="1" source="4Qdcl-6P2r4E57aGUwHM-72" target="4Qdcl-6P2r4E57aGUwHM-83">
          <mxGeometry width="50" height="50" relative="1" as="geometry">
            <mxPoint x="560" y="370" as="sourcePoint" />
            <mxPoint x="610" y="320" as="targetPoint" />
          </mxGeometry>
        </mxCell>
        <mxCell id="4Qdcl-6P2r4E57aGUwHM-94" value="" style="endArrow=none;html=1;rounded=0;labelBackgroundColor=#FF0000;labelBorderColor=none;fontColor=#000000;strokeColor=#FF0000;exitX=0.5;exitY=0.5;exitDx=0;exitDy=0;exitPerimeter=0;entryX=0;entryY=0.5;entryDx=0;entryDy=0;" edge="1" parent="1" source="4Qdcl-6P2r4E57aGUwHM-72" target="4Qdcl-6P2r4E57aGUwHM-87">
          <mxGeometry width="50" height="50" relative="1" as="geometry">
            <mxPoint x="560" y="370" as="sourcePoint" />
            <mxPoint x="610" y="320" as="targetPoint" />
          </mxGeometry>
        </mxCell>
        <mxCell id="4Qdcl-6P2r4E57aGUwHM-95" value="" style="endArrow=classic;html=1;rounded=0;labelBackgroundColor=#FF0000;labelBorderColor=none;fontColor=#000000;strokeColor=#FF0000;exitX=1;exitY=0.5;exitDx=0;exitDy=0;entryX=0;entryY=0.5;entryDx=0;entryDy=0;" edge="1" parent="1" source="4Qdcl-6P2r4E57aGUwHM-82" target="4Qdcl-6P2r4E57aGUwHM-85">
          <mxGeometry width="50" height="50" relative="1" as="geometry">
            <mxPoint x="560" y="370" as="sourcePoint" />
            <mxPoint x="610" y="320" as="targetPoint" />
          </mxGeometry>
        </mxCell>
        <mxCell id="4Qdcl-6P2r4E57aGUwHM-96" value="" style="endArrow=none;html=1;rounded=0;labelBackgroundColor=#FF0000;labelBorderColor=none;fontColor=#000000;strokeColor=#FF0000;entryX=0.5;entryY=0.5;entryDx=0;entryDy=0;entryPerimeter=0;exitX=1;exitY=0.5;exitDx=0;exitDy=0;" edge="1" parent="1" source="4Qdcl-6P2r4E57aGUwHM-79" target="4Qdcl-6P2r4E57aGUwHM-74">
          <mxGeometry width="50" height="50" relative="1" as="geometry">
            <mxPoint x="560" y="370" as="sourcePoint" />
            <mxPoint x="610" y="320" as="targetPoint" />
          </mxGeometry>
        </mxCell>
        <mxCell id="4Qdcl-6P2r4E57aGUwHM-97" value="" style="endArrow=none;html=1;rounded=0;labelBackgroundColor=#FF0000;labelBorderColor=none;fontColor=#000000;strokeColor=#FF0000;entryX=0.5;entryY=0.5;entryDx=0;entryDy=0;entryPerimeter=0;exitX=1;exitY=0;exitDx=0;exitDy=0;" edge="1" parent="1" source="4Qdcl-6P2r4E57aGUwHM-80" target="4Qdcl-6P2r4E57aGUwHM-74">
          <mxGeometry width="50" height="50" relative="1" as="geometry">
            <mxPoint x="560" y="370" as="sourcePoint" />
            <mxPoint x="610" y="320" as="targetPoint" />
          </mxGeometry>
        </mxCell>
        <mxCell id="4Qdcl-6P2r4E57aGUwHM-98" value="" style="endArrow=none;html=1;rounded=0;labelBackgroundColor=#FF0000;labelBorderColor=none;fontColor=#000000;strokeColor=#FF0000;entryX=0.5;entryY=0.5;entryDx=0;entryDy=0;entryPerimeter=0;exitX=1;exitY=0.5;exitDx=0;exitDy=0;" edge="1" parent="1" source="4Qdcl-6P2r4E57aGUwHM-84" target="4Qdcl-6P2r4E57aGUwHM-74">
          <mxGeometry width="50" height="50" relative="1" as="geometry">
            <mxPoint x="560" y="370" as="sourcePoint" />
            <mxPoint x="610" y="320" as="targetPoint" />
          </mxGeometry>
        </mxCell>
        <mxCell id="4Qdcl-6P2r4E57aGUwHM-99" value="" style="endArrow=none;html=1;rounded=0;labelBackgroundColor=#FF0000;labelBorderColor=none;fontColor=#000000;strokeColor=#FF0000;exitX=1;exitY=0;exitDx=0;exitDy=0;entryX=0.5;entryY=0.5;entryDx=0;entryDy=0;entryPerimeter=0;" edge="1" parent="1" source="4Qdcl-6P2r4E57aGUwHM-86" target="4Qdcl-6P2r4E57aGUwHM-74">
          <mxGeometry width="50" height="50" relative="1" as="geometry">
            <mxPoint x="560" y="370" as="sourcePoint" />
            <mxPoint x="610" y="320" as="targetPoint" />
          </mxGeometry>
        </mxCell>
        <mxCell id="4Qdcl-6P2r4E57aGUwHM-101" value="" style="endArrow=none;dashed=1;html=1;rounded=0;labelBackgroundColor=#FF0000;labelBorderColor=none;fontColor=#000000;strokeColor=#FF0000;exitX=1;exitY=0.5;exitDx=0;exitDy=0;entryX=0;entryY=0.5;entryDx=0;entryDy=0;" edge="1" parent="1" source="4Qdcl-6P2r4E57aGUwHM-85" target="4Qdcl-6P2r4E57aGUwHM-84">
          <mxGeometry width="50" height="50" relative="1" as="geometry">
            <mxPoint x="560" y="370" as="sourcePoint" />
            <mxPoint x="610" y="320" as="targetPoint" />
          </mxGeometry>
        </mxCell>
        <mxCell id="4Qdcl-6P2r4E57aGUwHM-102" value="" style="endArrow=none;html=1;rounded=0;labelBackgroundColor=#FF0000;labelBorderColor=none;fontColor=#000000;strokeColor=#FF0000;exitX=0.5;exitY=0.5;exitDx=0;exitDy=0;exitPerimeter=0;entryX=1;entryY=0.5;entryDx=0;entryDy=0;" edge="1" parent="1" source="4Qdcl-6P2r4E57aGUwHM-75" target="4Qdcl-6P2r4E57aGUwHM-81">
          <mxGeometry width="50" height="50" relative="1" as="geometry">
            <mxPoint x="560" y="370" as="sourcePoint" />
            <mxPoint x="610" y="320" as="targetPoint" />
          </mxGeometry>
        </mxCell>
        <mxCell id="4Qdcl-6P2r4E57aGUwHM-104" value="" style="endArrow=none;dashed=1;html=1;rounded=0;labelBackgroundColor=#FF0000;labelBorderColor=none;fontColor=#000000;strokeColor=#FF0000;exitX=0.5;exitY=0;exitDx=0;exitDy=0;entryX=0.5;entryY=1;entryDx=0;entryDy=0;" edge="1" parent="1" source="4Qdcl-6P2r4E57aGUwHM-81" target="4Qdcl-6P2r4E57aGUwHM-80">
          <mxGeometry width="50" height="50" relative="1" as="geometry">
            <mxPoint x="560" y="370" as="sourcePoint" />
            <mxPoint x="610" y="320" as="targetPoint" />
          </mxGeometry>
        </mxCell>
        <mxCell id="4Qdcl-6P2r4E57aGUwHM-105" value="Admin" style="shape=umlActor;verticalLabelPosition=bottom;verticalAlign=top;html=1;outlineConnect=0;fontColor=#000000;" vertex="1" parent="1">
          <mxGeometry x="150" y="550" width="30" height="60" as="geometry" />
        </mxCell>
        <mxCell id="4Qdcl-6P2r4E57aGUwHM-106" value="Krijimi i agjenteve te rinj" style="ellipse;whiteSpace=wrap;html=1;fontColor=#000000;" vertex="1" parent="1">
          <mxGeometry x="370" y="490" width="120" height="80" as="geometry" />
        </mxCell>
        <mxCell id="4Qdcl-6P2r4E57aGUwHM-107" value="Caktivizimi i agjenteve" style="ellipse;whiteSpace=wrap;html=1;fontColor=#000000;" vertex="1" parent="1">
          <mxGeometry x="310" y="600" width="120" height="80" as="geometry" />
        </mxCell>
        <mxCell id="4Qdcl-6P2r4E57aGUwHM-108" value="" style="endArrow=none;html=1;rounded=0;labelBackgroundColor=#FF0000;labelBorderColor=none;fontColor=#000000;strokeColor=#FF0000;exitX=0.5;exitY=0.5;exitDx=0;exitDy=0;exitPerimeter=0;entryX=0;entryY=0.5;entryDx=0;entryDy=0;" edge="1" parent="1" source="4Qdcl-6P2r4E57aGUwHM-105" target="4Qdcl-6P2r4E57aGUwHM-106">
          <mxGeometry width="50" height="50" relative="1" as="geometry">
            <mxPoint x="560" y="350" as="sourcePoint" />
            <mxPoint x="610" y="300" as="targetPoint" />
          </mxGeometry>
        </mxCell>
        <mxCell id="4Qdcl-6P2r4E57aGUwHM-109" value="" style="endArrow=none;html=1;rounded=0;labelBackgroundColor=#FF0000;labelBorderColor=none;fontColor=#000000;strokeColor=#FF0000;entryX=0;entryY=0.5;entryDx=0;entryDy=0;" edge="1" parent="1" source="4Qdcl-6P2r4E57aGUwHM-105" target="4Qdcl-6P2r4E57aGUwHM-107">
          <mxGeometry width="50" height="50" relative="1" as="geometry">
            <mxPoint x="560" y="350" as="sourcePoint" />
            <mxPoint x="610" y="300" as="targetPoint" />
          </mxGeometry>
        </mxCell>
      </root>
    </mxGraphModel>
  </diagram>
</mxfile>
